<svg width="289" height="152" viewBox="0 0 289 152" fill="none" xmlns="http://www.w3.org/2000/svg">
<path fill-rule="evenodd" clip-rule="evenodd" d="M48.9398 13.4541C30.2171 18.9008 7.00072 46.4026 6.34135 56.3726C5.68198 66.3426 7.12069 68.7828 7.12069 68.7828C9.87612 74.3737 13.245 78.6733 16.3177 82.595C16.7343 83.1267 17.1455 83.6514 17.5489 84.1715C13.8718 89.2836 11.1245 93.2962 9.71815 95.4129C5.69836 101.463 -0.671657 114.804 1.40623 121.009C2.9648 123.853 5.18514 124.789 8.15967 124.887C18.2898 125.22 35.1733 113.77 36.2123 101.101C37.3027 89.1226 35.8513 83.4683 26.2971 73.5428C32.1382 65.3235 37.5491 58.3087 45.0436 49.3919C38.142 57.1811 31.483 65.525 25.7906 73.0204C23.3779 70.549 20.4721 67.8097 16.9911 64.6461C12.3277 59.3346 16.1312 56.6014 23.0949 51.5973C23.3924 51.3835 23.6956 51.1656 24.0042 50.9432C25.6045 49.8966 27.1243 48.9057 28.5662 47.9655C44.3452 37.6775 50.8016 33.4679 51.2776 28.9668C51.9612 22.5032 52.0202 12.9342 48.9398 13.4541ZM18.2814 85.1229C21.8546 89.8054 24.6759 94.2172 25.0432 100.067C26.6016 113.511 16.2118 122.56 9.71812 123.077C1.03797 123.649 0.886716 112.477 15.6923 88.9493C16.5825 87.6297 17.4438 86.3563 18.2814 85.1229Z" fill="#ED273E"/>
<path d="M52.3166 40.3428C41.667 40.3428 42.1865 80.4173 51.5374 79.6416C51.8962 79.5797 52.0197 79.4753 52.0569 79.1246C52.5764 67.7486 53.8751 65.9388 59.5895 55.597C62.4467 46.5479 56.2128 40.3428 52.3166 40.3428Z" fill="#ED273E"/>
<path d="M54.1348 31.2938C54.0748 33.8785 55.1738 38.0159 61.4077 38.0159C67.4212 37.7922 69.2801 32.0053 72.0573 24.8301C72.0573 24.8301 73.0963 21.469 72.3171 20.952C71.5378 20.4349 70.7586 20.4349 69.9794 20.4349C66.0832 20.4349 54.2459 26.5067 54.1348 31.2938Z" fill="#ED273E"/>
<path fill-rule="evenodd" clip-rule="evenodd" d="M81.668 36.4647C67.043 45.2863 58.8143 57.6438 57.7713 70.334C57.759 79.189 60.725 84.3749 63.4857 85.3296C66.7848 86.8974 75.7527 81.0631 87.1226 68.7828C87.4424 79.6883 87.4647 93.0623 86.9996 105.744C78.2199 108.267 70.5894 111.553 65.5637 115.838C60.7069 121.781 71.3867 148.252 79.8497 151C84.0057 151 86.4033 148.367 88.1616 144.795C92.6177 135.085 94.9519 122.373 95.7077 108.85C113.841 104.241 140.703 100.212 176.735 99.8081C184.349 99.188 222.97 100.325 250.243 103.686C239.396 101.474 188.164 95.4129 143.747 97.7398C131.011 98.407 112.425 99.8967 95.9246 103.506C96.2859 89.4541 95.061 74.8506 92.8371 62.0606C92.3176 61.285 91.7286 60.9462 91.0188 62.0606C85.8138 69.1769 77.5419 77.6902 73.0963 77.5733C71.5378 74.9878 75.7193 62.4348 85.8239 53.2701C86.4619 52.5061 86.8414 52.1692 87.1226 49.909C87.4404 42.7654 85.7795 35.6036 81.668 36.4647ZM67.1222 122.56C67.1222 129.801 75.6938 149.19 79.8497 148.673C83.7453 146.014 85.8333 130.011 86.7574 111.379C77.1035 114.416 71.0306 117.465 68.4209 119.716C67.3819 120.492 67.1222 121.784 67.1222 122.56Z" fill="#ED273E"/>
<path d="M112.578 38.7916C107.593 39.0554 99.3466 43.6752 91.0188 58.1824C96.5593 53.5978 98.5515 51.2017 101.149 52.2359C104.503 55.3332 100.629 77.5733 103.487 87.9151C104.266 88.4322 106.344 81.1929 106.344 81.1929C110.067 67.857 121.149 53.2701 121.669 53.7872C115.695 77.5733 119.331 86.1053 120.63 87.398C124.007 88.9493 126.085 86.6224 126.085 86.6224C132.22 81.6617 136.573 76.4038 136.474 75.2464L132.319 78.6075C132.319 78.6075 128.682 80.6758 128.682 78.6075C128.163 65.9388 134.396 46.5479 132.319 44.4795C131.539 43.9625 130.241 43.9625 128.682 44.4795C127.124 44.9966 121.32 51.0389 111.799 63.8704C113.035 55.4434 116.993 38.7916 112.578 38.7916Z" fill="#ED273E"/>
<path fill-rule="evenodd" clip-rule="evenodd" d="M152.319 36.2061C135.935 48.5448 134.348 56.07 133.617 65.9388C133.758 72.8795 137.593 77.551 140.63 77.5733C146.411 76.6641 149.121 73.1112 152.8 68.2879C153.616 67.2177 154.48 66.0849 155.436 64.9046C155.846 74.0663 156.123 78.6046 157.254 78.6075C158.47 79.5644 159.541 77.9303 161.373 75.1328C161.977 74.2106 162.664 73.1619 163.466 72.038C163.563 83.887 164.767 92.8711 167.634 94.3787C168.683 94.9305 169.982 94.3787 172.579 92.3103C176.621 88.2887 179.647 84.931 183.928 79.1869C185.654 82.0474 187.806 82.6472 189.463 82.7442C192.993 82.9509 198.517 76.3806 202.315 70.1702C203.777 77.4575 206.535 83.9393 210.242 86.3638C215.957 87.9151 220.892 81.1929 224.529 53.5286C224.566 52.9208 224.599 52.3521 224.625 51.8174C226.37 51.7908 227.872 51.6156 228.988 51.4854L229.204 51.4603C228.573 68.5936 230.311 72.4356 234.139 75.2464C236.891 75.7028 240.856 73.1373 248.359 63.6373C249.893 66.4941 251.785 68.6461 253.62 70.5926C257.316 73.9306 260.084 70.2034 264.789 65.4217C266.447 64.0553 269.724 59.9922 273.88 58.9581C278.927 57.8342 279.928 59.2994 282.712 60.7679C284.68 61.1133 287.415 58.6995 287.647 57.6653C288.566 53.5616 287.566 53.3281 286.088 52.4944C281.004 51.3047 280.182 51.9507 277.777 52.4944C273.428 54.1351 266.867 63.6119 263.49 64.129C261.672 64.129 259.594 62.8362 257.776 58.441C257.593 57.8584 257.413 57.2909 257.236 56.7375C259.995 54.8751 264.564 51.2021 266.088 48.3577C267.335 46.0308 267.906 43.4454 267.906 41.6356C267.906 39.8257 267.646 34.9134 264.01 33.1036C260.893 31.5523 257.577 31.2218 255.698 31.2938C248.945 31.5523 246.472 36.9707 245.308 43.9625C244.56 52.8967 245.896 58.7458 248.048 63.0371C243.961 67.0062 242.878 67.1373 241.672 67.2315C239.82 67.0472 239.684 63.0519 239.477 56.932C239.393 54.4678 239.298 51.6592 239.074 48.6163C239.017 47.8406 237.256 47.5821 235.698 47.8406C234.971 47.9612 234.117 48.2937 233.077 48.699C231.888 49.1626 230.454 49.7214 228.684 50.1675C228.038 50.3819 226.41 50.5629 224.67 50.66C224.745 47.9319 224.525 46.1613 223.49 44.4795C221.671 42.1526 218.62 43.4772 218.035 43.9625C216.476 45.2552 215.697 47.5821 216.476 49.3919C216.996 50.4261 217.515 50.9432 218.554 51.2017C219.478 51.4181 220.383 51.5666 221.258 51.6638C221.275 64.2092 217.852 79.0029 215.957 80.4173C213.879 81.9686 213 67.4262 212.84 54.5628C211.922 49.1225 206.606 42.4112 205.048 43.4454C200.917 47.4993 200.257 59.0107 202.135 69.2327C199.331 72.8251 197.934 73.9202 196.736 73.9537C193.068 74.589 192.623 57.2236 193.619 49.1334C193.811 47.5729 186.086 36.4647 184.268 38.2745C178.553 50.6846 178.813 66.7144 182.709 76.5391C182.95 77.2227 183.208 77.8319 183.481 78.3747C180.12 82.0247 176.82 85.132 175.956 84.8125C174.43 84.2487 174.114 71.2851 174.917 56.3726C176.615 40.8236 178.114 31.0105 179.265 24.3132C198.287 22.8985 210.902 17.4091 223.49 6.21491C205.734 13.3948 193.115 15.2 180.943 14.9909C181.409 12.3149 181.667 10.3647 181.67 8.28326C180.631 4.66364 176.475 0.526928 173.358 1.04402C171.836 1.97673 170.234 6.98401 168.773 14.2374C167.883 14.1529 166.988 14.0637 166.086 13.9713C160.371 13.3857 159.072 14.1929 156.475 16.0396C153.877 17.8864 152.705 19.9498 152.838 21.4691C153.227 23.4042 155.511 23.71 158.375 24.0937C159.338 24.2226 160.366 24.3603 161.41 24.5716C163.323 24.6346 165.181 24.673 166.985 24.6858C164.925 38.7109 163.458 56.4072 163.46 70.4869C162.153 71.561 160.806 72.6602 159.852 73.4366V58.1824C159.096 58.1843 157.148 60.6784 154.973 63.4633C152.888 66.1325 150.595 69.0688 148.942 70.334C146.767 71.263 146.008 71.1714 145.566 69.8169C145.566 61.7703 152.45 55.2135 156.109 51.7297C157.269 50.624 158.105 49.8279 158.293 49.3919C159.072 47.5821 159.247 39.2711 155.955 35.4305C155.906 35.4247 155.858 35.4186 155.81 35.4126C155.781 35.4088 155.752 35.405 155.724 35.4012L155.655 35.3921C154.782 35.2757 154.21 35.1995 152.319 36.2061ZM218.035 46.2894C218.496 45.3721 220.928 45.3003 221.152 48.0992C221.204 48.9573 221.236 49.8348 221.25 50.7259C220.152 50.6966 219.355 50.5195 219.074 50.4261C218.295 50.1675 217.256 47.8406 218.035 46.2894ZM261.672 43.4454C261.153 40.8599 255.698 38.0159 254.399 40.8599C253.479 44.9844 254.912 49.4685 256.961 55.8757L257.065 56.2029C258.512 54.7193 260.093 52.711 261.153 50.4261C261.895 48.8249 262.192 46.0308 261.672 43.4454Z" fill="#ED273E"/>
<path d="M155.655 35.3921C154.782 35.2757 154.21 35.1995 152.319 36.2061C135.935 48.5448 134.348 56.07 133.617 65.9388C133.758 72.8795 137.593 77.551 140.63 77.5733C146.411 76.6641 149.121 73.1112 152.8 68.2879C153.616 67.2177 154.48 66.0849 155.436 64.9046C155.846 74.0663 156.123 78.6046 157.254 78.6075C158.47 79.5644 159.541 77.9303 161.373 75.1328C161.977 74.2106 162.664 73.1619 163.466 72.038C163.563 83.887 164.767 92.8711 167.634 94.3787C168.683 94.9305 169.982 94.3787 172.579 92.3103C176.621 88.2887 179.647 84.931 183.928 79.1869C185.654 82.0474 187.806 82.6472 189.463 82.7442C192.993 82.9509 198.517 76.3806 202.315 70.1702C203.777 77.4575 206.535 83.9393 210.242 86.3638C215.957 87.9151 220.892 81.1929 224.529 53.5286C224.566 52.9208 224.599 52.3521 224.625 51.8174C226.37 51.7908 227.872 51.6156 228.988 51.4854M155.655 35.3921L155.724 35.4012M155.655 35.3921C155.678 35.3951 155.701 35.3982 155.724 35.4012M229.204 51.4603C228.573 68.5936 230.311 72.4356 234.139 75.2464C236.891 75.7028 240.856 73.1373 248.359 63.6373C249.893 66.4941 251.785 68.6461 253.62 70.5926C257.316 73.9306 260.084 70.2034 264.789 65.4217C266.447 64.0553 269.724 59.9922 273.88 58.9581C278.927 57.8342 279.928 59.2994 282.712 60.7679C284.68 61.1133 287.415 58.6995 287.647 57.6653C288.566 53.5616 287.566 53.3281 286.088 52.4944C281.004 51.3047 280.182 51.9507 277.777 52.4944C273.428 54.1351 266.867 63.6119 263.49 64.129C261.672 64.129 259.594 62.8362 257.776 58.441C257.593 57.8584 257.413 57.2909 257.236 56.7375C259.995 54.8751 264.564 51.2021 266.088 48.3577C267.335 46.0308 267.906 43.4454 267.906 41.6356C267.906 39.8257 267.646 34.9134 264.01 33.1036C260.893 31.5523 257.577 31.2218 255.698 31.2938C248.945 31.5523 246.472 36.9707 245.308 43.9625C244.56 52.8967 245.896 58.7458 248.048 63.0371C243.961 67.0062 242.878 67.1373 241.672 67.2315C239.82 67.0472 239.684 63.0519 239.477 56.932C239.393 54.4678 239.298 51.6592 239.074 48.6163C239.017 47.8406 237.256 47.5821 235.698 47.8406C234.971 47.9612 234.117 48.2937 233.077 48.699C231.888 49.1626 230.454 49.7214 228.684 50.1675C228.038 50.3819 226.41 50.5629 224.67 50.66C224.745 47.9319 224.525 46.1613 223.49 44.4795C221.671 42.1526 218.62 43.4772 218.035 43.9625C216.476 45.2552 215.697 47.5821 216.476 49.3919C216.996 50.4261 217.515 50.9432 218.554 51.2017C219.478 51.4181 220.383 51.5666 221.258 51.6638C221.275 64.2092 217.852 79.0029 215.957 80.4173C213.879 81.9686 213 67.4262 212.84 54.5628C211.922 49.1225 206.606 42.4112 205.048 43.4454C200.917 47.4993 200.257 59.0107 202.135 69.2327C199.331 72.8251 197.934 73.9202 196.736 73.9537C193.068 74.589 192.623 57.2236 193.619 49.1334C193.811 47.5729 186.086 36.4647 184.268 38.2745C178.553 50.6846 178.813 66.7144 182.709 76.5391C182.95 77.2227 183.208 77.8319 183.481 78.3747C180.12 82.0247 176.82 85.132 175.956 84.8125C174.43 84.2487 174.114 71.2851 174.917 56.3726C176.615 40.8236 178.114 31.0105 179.265 24.3132C198.287 22.8985 210.902 17.4091 223.49 6.21491C205.734 13.3948 193.115 15.2 180.943 14.9909C181.409 12.3149 181.667 10.3647 181.67 8.28326C180.631 4.66364 176.475 0.526928 173.358 1.04402C171.836 1.97673 170.234 6.98401 168.773 14.2374C167.883 14.1529 166.988 14.0637 166.086 13.9713C160.371 13.3857 159.072 14.1929 156.475 16.0396C153.877 17.8864 152.705 19.9498 152.838 21.4691C153.227 23.4042 155.511 23.71 158.375 24.0937C159.338 24.2226 160.366 24.3603 161.41 24.5716C163.323 24.6346 165.181 24.673 166.985 24.6858C164.925 38.7109 163.458 56.4072 163.46 70.4869C162.153 71.561 160.806 72.6602 159.852 73.4366V58.1824C159.096 58.1843 157.148 60.6784 154.973 63.4633C152.888 66.1325 150.595 69.0688 148.942 70.334C146.767 71.263 146.008 71.1714 145.566 69.8169C145.566 61.7703 152.45 55.2135 156.109 51.7297C157.269 50.624 158.105 49.8279 158.293 49.3919C159.072 47.5821 159.247 39.2711 155.955 35.4305C155.906 35.4247 155.858 35.4186 155.81 35.4126C155.781 35.4088 155.752 35.405 155.724 35.4012M229.204 51.4603C229.134 51.4684 229.062 51.4768 228.988 51.4854M229.204 51.4603L228.988 51.4854M257.065 56.2029C258.512 54.7193 260.093 52.711 261.153 50.4261C261.895 48.8249 262.192 46.0308 261.672 43.4454C261.153 40.8599 255.698 38.0159 254.399 40.8599C253.479 44.9844 254.912 49.4685 256.961 55.8757M257.065 56.2029L256.961 55.8757M257.065 56.2029C257.03 56.0932 256.995 55.9842 256.961 55.8757M48.9398 13.4541C30.2171 18.9008 7.00072 46.4026 6.34135 56.3726C5.68198 66.3426 7.12069 68.7828 7.12069 68.7828C9.87612 74.3737 13.245 78.6733 16.3177 82.595C16.7343 83.1267 17.1455 83.6514 17.5489 84.1715C13.8718 89.2836 11.1245 93.2962 9.71815 95.4129C5.69836 101.463 -0.671657 114.804 1.40623 121.009C2.9648 123.853 5.18514 124.789 8.15967 124.887C18.2898 125.22 35.1733 113.77 36.2123 101.101C37.3027 89.1226 35.8513 83.4683 26.2971 73.5428C32.1382 65.3235 37.5491 58.3087 45.0436 49.3919C38.142 57.1811 31.483 65.525 25.7906 73.0204C23.3779 70.549 20.4721 67.8097 16.9911 64.6461C12.3277 59.3346 16.1312 56.6014 23.0949 51.5973C23.3924 51.3835 23.6956 51.1656 24.0042 50.9432C25.6045 49.8966 27.1243 48.9057 28.5662 47.9655C44.3452 37.6775 50.8016 33.4679 51.2776 28.9668C51.9612 22.5032 52.0202 12.9342 48.9398 13.4541ZM25.0432 100.067C26.6016 113.511 16.2118 122.56 9.71812 123.077C1.03797 123.649 0.886716 112.477 15.6923 88.9493C16.5825 87.6297 17.4438 86.3563 18.2814 85.1229C21.8546 89.8054 24.6759 94.2172 25.0432 100.067ZM52.3166 40.3428C41.667 40.3428 42.1865 80.4173 51.5374 79.6416C51.8962 79.5797 52.0197 79.4753 52.0569 79.1246C52.5764 67.7486 53.8751 65.9388 59.5895 55.597C62.4467 46.5479 56.2128 40.3428 52.3166 40.3428ZM54.1348 31.2938C54.0748 33.8785 55.1738 38.0159 61.4077 38.0159C67.4212 37.7922 69.2801 32.0053 72.0573 24.8301C72.0573 24.8301 73.0963 21.469 72.3171 20.952C71.5378 20.4349 70.7586 20.4349 69.9794 20.4349C66.0832 20.4349 54.2459 26.5067 54.1348 31.2938ZM81.668 36.4647C67.043 45.2863 58.8143 57.6438 57.7713 70.334C57.759 79.189 60.725 84.3749 63.4857 85.3296C66.7848 86.8974 75.7527 81.0631 87.1226 68.7828C87.4424 79.6883 87.4647 93.0623 86.9996 105.744C78.2199 108.267 70.5894 111.553 65.5637 115.838C60.7069 121.781 71.3867 148.252 79.8497 151C84.0057 151 86.4033 148.367 88.1616 144.795C92.6177 135.085 94.9519 122.373 95.7077 108.85C113.841 104.241 140.703 100.212 176.735 99.8081C184.349 99.188 222.97 100.325 250.243 103.686C239.396 101.474 188.164 95.4129 143.747 97.7398C131.011 98.407 112.425 99.8967 95.9246 103.506C96.2859 89.4541 95.061 74.8506 92.8371 62.0606C92.3176 61.285 91.7286 60.9462 91.0188 62.0606C85.8138 69.1769 77.5419 77.6902 73.0963 77.5733C71.5378 74.9878 75.7193 62.4348 85.8239 53.2701C86.4619 52.5061 86.8414 52.1692 87.1226 49.909C87.4404 42.7654 85.7795 35.6036 81.668 36.4647ZM79.8497 148.673C75.6938 149.19 67.1222 129.801 67.1222 122.56C67.1222 121.784 67.3819 120.492 68.4209 119.716C71.0306 117.465 77.1035 114.416 86.7574 111.379C85.8333 130.011 83.7453 146.014 79.8497 148.673ZM112.578 38.7916C107.593 39.0554 99.3466 43.6752 91.0188 58.1824C96.5593 53.5978 98.5515 51.2017 101.149 52.2359C104.503 55.3332 100.629 77.5733 103.487 87.9151C104.266 88.4322 106.344 81.1929 106.344 81.1929C110.067 67.857 121.149 53.2701 121.669 53.7872C115.695 77.5733 119.331 86.1053 120.63 87.398C124.007 88.9493 126.085 86.6224 126.085 86.6224C132.22 81.6617 136.573 76.4038 136.474 75.2464L132.319 78.6075C132.319 78.6075 128.682 80.6758 128.682 78.6075C128.163 65.9388 134.396 46.5479 132.319 44.4795C131.539 43.9625 130.241 43.9625 128.682 44.4795C127.124 44.9966 121.32 51.0389 111.799 63.8704C113.035 55.4434 116.993 38.7916 112.578 38.7916ZM221.152 48.0992C220.928 45.3003 218.496 45.3721 218.035 46.2894C217.256 47.8406 218.295 50.1675 219.074 50.4261C219.355 50.5195 220.152 50.6966 221.25 50.7259C221.236 49.8348 221.204 48.9573 221.152 48.0992Z" stroke="#ED273E"/>
</svg>
