<svg width="300" height="339" viewBox="0 0 642 339" fill="none" stroke="none" xmlns="http://www.w3.org/2000/svg">
<path fill-rule="evenodd" clip-rule="evenodd" d="M108.118 30.0435C100.721 27.087 62.1752 50.6839 31.1863 93.6087C8.53928 126.763 11.885 139.236 14.9129 148.305C16.6136 153.398 29.4717 169.091 40.4172 185.276C15.5054 219.157 3.20917 236.092 1.59878 251.783C1.01369 254.875 0.119146 266.565 3.07744 272.478C6.03569 278.391 18.7924 283.028 32.6661 276.913C46.5398 270.799 52.4496 266.615 66.6935 254.739C66.6935 254.739 75.5702 247.348 78.5291 234.043C81.488 220.739 81.488 203 77.0497 191.174C72.6113 179.348 67.993 175.954 59.2962 166.043C59.095 165.814 58.8932 165.585 58.6914 165.356L78.5291 139.435C78.5291 139.435 91.8451 123.174 94.8031 118.739C91.8451 120.217 56.5033 162.896 56.5033 162.896C44.8464 149.896 32.896 138.131 32.6661 136.478C32.2447 133.446 28.1564 127.847 56.3373 109.87C68.2372 100.827 77.1541 94.9397 96.2825 83.2609L102.2 78.8699C102.2 78.8699 111.077 72.9131 114.036 62.5652C116.995 52.2174 115.516 33 108.118 30.0435ZM50.4204 256.217C59.2971 245.87 56.3373 219.261 56.3373 219.261C56.3373 211.306 49.7579 199.332 41.831 187.386L40.0634 189.696C40.0634 189.696 29.7081 204.478 20.8315 220.739C11.9548 237 4.34583 263.332 10.4753 269.522C16.6048 275.712 42.1056 266.989 50.4204 256.217Z" fill="white"/>
<path d="M56.3373 163.087L56.5033 162.896ZM56.5033 162.896C44.8464 149.896 32.896 138.131 32.6661 136.478C32.2447 133.446 28.1564 127.847 56.3373 109.87C68.2372 100.827 77.1541 94.9397 96.2825 83.2609L102.2 78.8699C102.2 78.8699 111.077 72.9131 114.036 62.5652C116.995 52.2174 115.516 33 108.118 30.0435C100.721 27.087 62.1752 50.6839 31.1863 93.6087C8.53928 126.763 11.885 139.236 14.9129 148.305C16.6136 153.398 29.4717 169.091 40.4172 185.276C15.5054 219.157 3.20917 236.092 1.59878 251.783C1.01369 254.875 0.119146 266.565 3.07744 272.478C6.03569 278.391 18.7924 283.028 32.6661 276.913C46.5398 270.799 52.4496 266.615 66.6935 254.739C66.6935 254.739 75.5702 247.348 78.5291 234.043C81.488 220.739 81.488 203 77.0497 191.174C72.6113 179.348 67.993 175.954 59.2962 166.043C59.095 165.814 58.8932 165.585 58.6914 165.356L78.5291 139.435C78.5291 139.435 91.8451 123.174 94.8031 118.739C91.8451 120.217 56.5033 162.896 56.5033 162.896ZM56.3373 219.261C56.3373 219.261 59.2971 245.87 50.4204 256.217C42.1056 266.989 16.6048 275.712 10.4753 269.522C4.34583 263.332 11.9548 237 20.8315 220.739C29.7081 204.478 40.0634 189.696 40.0634 189.696L41.831 187.386C49.7579 199.332 56.3373 211.306 56.3373 219.261Z" fill="white"/>
<path d="M122.914 64.0438C122.914 64.0438 121.159 73.3882 122.913 75.8696C124.668 78.351 122.914 77.3481 128.831 81.7829C134.749 86.2177 142.146 83.2612 142.146 83.2612C145.939 80.8933 148.622 79.0845 153.982 69.9568C159.066 60.76 163.542 48.6773 158.421 46.3044C153.299 43.9315 146.585 46.3044 136.229 52.2174C125.873 58.1305 124.393 61.0876 122.914 64.0438Z" fill="black"/>
<path d="M114.037 92.1304C111.078 92.1304 108.684 93.368 106.64 96.5652C104.595 99.7624 103.681 102.478 100.721 115.783C97.7623 129.087 99.2426 140.913 99.2426 140.913C99.2426 140.913 100.722 151.261 103.681 161.609C106.64 171.957 108.119 176.391 111.078 176.391C114.036 176.391 115.517 166.043 115.517 166.043C115.517 166.043 115.515 163.087 118.475 151.261C121.435 139.435 128.831 132.043 131.79 123.174C134.749 114.304 133.269 105.435 131.79 101C130.311 96.5652 128.832 95.087 125.873 93.6087C122.914 92.1304 116.996 92.1304 114.037 92.1304Z" fill="white"/>
<path d="M122.914 64.0438C122.914 64.0438 121.159 73.3882 122.913 75.8696C124.668 78.351 122.914 77.3481 128.831 81.7829C134.749 86.2177 142.146 83.2612 142.146 83.2612C145.939 80.8933 148.622 79.0845 153.982 69.9568C159.066 60.76 163.542 48.6773 158.421 46.3044C153.299 43.9315 146.585 46.3044 136.229 52.2174C125.873 58.1305 124.393 61.0876 122.914 64.0438Z" fill="white"/>
<path d="M114.037 92.1304C111.078 92.1304 108.684 93.368 106.64 96.5652C104.595 99.7624 103.681 102.478 100.721 115.783C97.7623 129.087 99.2426 140.913 99.2426 140.913C99.2426 140.913 100.722 151.261 103.681 161.609C106.64 171.957 108.119 176.391 111.078 176.391C114.036 176.391 115.517 166.043 115.517 166.043C115.517 166.043 115.515 163.087 118.475 151.261C121.435 139.435 128.831 132.043 131.79 123.174C134.749 114.304 133.269 105.435 131.79 101C130.311 96.5652 128.832 95.087 125.873 93.6087C122.914 92.1304 116.996 92.1304 114.037 92.1304Z" fill="white"/>
<path d="M344.832 78.8261C337.174 80.095 307.845 105.435 300.448 127.609C293.051 149.783 296.01 155.696 298.969 160.13C301.928 164.565 304.886 170.478 313.763 173.435C322.64 176.391 342.402 142.391 346.912 143.87C352.229 140.913 346.912 171.957 350.749 174.913C354.587 177.87 364.065 160.13 364.065 160.13C364.065 160.13 358.147 164.565 355.188 163.087C352.229 161.609 355.188 130.565 355.188 130.565C355.188 130.565 327.078 157.174 324.119 157.174C321.16 157.174 321.16 152.739 324.119 146.826C327.078 140.913 344.832 124.652 353.708 108.391C358.147 98.0435 356.667 86.2174 355.188 83.2609C353.708 80.3044 352.489 77.5572 344.832 78.8261Z" fill="white"/>
<path fill-rule="evenodd" clip-rule="evenodd" d="M179.133 81.7826C168.777 84.7392 162.859 92.1305 152.503 105.435C142.147 118.739 137.708 126.13 133.27 137.957C128.832 149.783 128.832 151.261 128.832 158.652C128.832 166.043 128.832 173.435 133.27 182.304C137.708 191.174 140.667 192.652 145.106 192.652C149.544 192.652 155.462 194.13 167.297 180.826C179.133 167.522 193.928 154.217 193.928 154.217C195.801 187.321 195.69 205.441 193.928 236.908C193.928 236.908 176.174 241.435 167.297 244.391C158.421 247.348 146.585 251.475 143.626 256.217C140.667 260.959 140.667 268.043 140.667 271C140.667 273.957 143.626 287.261 146.585 294.652C149.544 302.044 152.503 310.913 161.38 322.739C166.928 330.13 170.256 334.565 177.654 337.522C183.571 337.522 188.01 336.044 190.969 333.087C193.928 330.13 198.366 319.783 201.325 310.913C204.284 302.043 207.397 279.87 208.722 271C210.047 262.13 211.526 246.248 211.526 246.248C211.526 246.248 222.037 241.435 244.229 237C266.421 232.565 294.53 226.652 319.681 225.174C334.446 224.306 346.261 222.908 372.941 222.217C391.713 221.732 405.489 220.739 436.558 222.217C467.626 223.696 553.434 231.087 553.434 231.087C494.212 224.841 465.62 220.802 433.599 217.783C433.599 217.783 415.845 216.304 406.969 216.304C398.092 216.304 343.352 216.304 287.133 220.739C230.914 225.174 214.64 231.087 214.64 231.087L212.746 231.619V204.478C212.746 191.174 211.526 160.13 210.202 152.739C208.877 145.348 208.722 137.957 205.763 136.478C202.804 135 201.325 137.957 198.366 142.391C195.407 146.826 189.489 154.217 189.489 154.217L179.133 164.565C179.133 164.565 173.215 170.478 170.256 171.957C167.297 173.435 162.859 174.913 161.38 171.957C159.9 169 161.38 155.696 164.339 149.783C167.297 143.87 171.736 137.957 177.654 130.565C183.571 123.174 190.969 118.739 193.928 112.826C196.886 106.913 192.448 92.1305 192.448 92.1305C192.448 92.1305 189.489 78.8261 179.133 81.7826ZM177.654 331.609C180.612 331.609 182.092 327.174 186.53 312.391C190.969 297.609 193.041 251.475 193.041 251.475C193.041 251.475 174.695 256.217 165.818 259.174C156.941 262.13 149.544 265.087 149.544 272.478C149.544 279.87 152.503 293.174 156.941 303.522C161.38 313.87 171.736 328.652 171.736 328.652C171.736 328.652 174.695 331.609 177.654 331.609Z" fill="white"/>
<path d="M248.667 86.2174C244.229 87.6957 244.229 86.2174 230.914 96.5652C217.599 106.913 213.16 114.304 207.243 126.13C211.681 123.174 220.558 112.826 224.996 114.304C229.434 115.783 229.434 123.174 229.434 123.174V188.217C229.434 191.174 229.434 197.087 230.914 194.13C232.393 191.174 239.791 169 245.708 155.696C251.626 142.391 251.626 142.391 254.585 137.957C257.544 133.522 270.859 118.739 270.859 118.739L267.9 136.478C267.9 136.478 266.421 146.826 264.941 155.696C263.462 164.565 263.532 170.478 263.462 176.391C263.391 182.304 264.941 186.739 266.421 189.696C267.9 192.652 270.859 195.609 273.818 195.609C276.777 195.609 281.215 195.609 287.133 189.696C293.051 183.783 293.051 183.783 297.489 177.87C301.928 171.957 303.407 167.522 303.407 167.522C303.407 167.522 291.571 177.87 288.612 176.391C285.654 174.913 285.654 170.478 287.133 154.217C288.612 137.957 296.01 101 294.53 98.0435C293.051 95.087 287.133 98.0435 281.215 102.478C275.297 106.913 267.9 115.783 261.982 123.174C256.065 130.565 248.667 143.87 248.667 143.87C248.667 143.87 251.626 129.087 253.106 115.783C254.585 102.478 253.106 87.6957 253.106 87.6957C253.106 87.6957 253.106 84.7391 248.667 86.2174Z" fill="white"/>
<path d="M386.256 1.95654C383.297 3.43483 381.818 7.86958 381.818 7.86958C381.818 7.86958 380.339 10.8261 378.859 19.6957C377.38 28.5652 377.542 28.9052 377.542 28.9052C377.542 28.9052 361.106 28.5652 356.093 29.3351C347.217 32.2916 338.914 41.8696 340.393 44.8261C341.873 47.7826 344.832 49.2609 349.27 50.7391C353.708 52.2174 374.421 52.2174 374.421 52.2174C374.421 52.2174 367.023 93.6087 365.544 118.739C364.065 143.87 364.065 160.13 364.065 160.13L364.065 176.391C364.065 188.217 365.544 194.13 368.503 200.043C371.462 205.957 377.38 208.913 380.339 208.913C383.297 208.913 393.654 197.087 393.654 197.087L412.886 174.913L411.407 171.957C411.407 171.957 395.133 188.217 393.654 188.217C392.174 188.217 390.695 188.217 389.215 180.826C387.736 166.043 387.736 132.043 390.695 109.87C393.654 87.6957 398.548 52.2174 398.548 52.2174C398.548 52.2174 411.407 52.2174 418.804 50.7391C438.037 47.7826 452.832 41.8696 466.147 34.4783C479.462 27.087 489.818 18.2174 494.256 12.3044C488.339 13.7826 469.106 24.1304 448.393 27.087C424.722 30.466 402.072 29.3351 402.072 29.3351C403.311 21.9577 404.01 19.6957 402.53 15.2609C401.051 10.8261 396.612 3.4348 393.654 1.95654C390.695 0.478284 389.215 0.478263 386.256 1.95654Z" fill="white"/>
<path d="M411.407 84.7392C410.138 84.7392 404.01 102.478 404.01 136.478C405.489 158.652 411.407 171.957 411.407 171.957L412.886 174.913C412.886 174.913 414.366 179.348 418.804 180.826C423.243 182.304 430.64 183.076 436.558 177.87C442.476 172.663 457.27 148.304 457.27 148.304C457.27 148.304 443.955 163.087 439.517 164.565C435.078 166.043 430.64 163.087 429.16 148.304C427.681 133.522 433.599 111.348 432.119 105.435C430.64 99.5218 412.676 84.7392 411.407 84.7392Z" fill="white"/>
<path d="M411.407 84.7392C410.138 84.7392 404.01 102.478 404.01 136.478C405.489 158.652 411.407 171.957 411.407 171.957L412.886 174.913C412.886 174.913 414.366 179.348 418.804 180.826C423.243 182.304 430.64 183.076 436.558 177.87C442.476 172.663 457.27 148.304 457.27 148.304C457.27 148.304 443.955 163.087 439.517 164.565C435.078 166.043 430.64 163.087 429.16 148.304C427.681 133.522 433.599 111.348 432.119 105.435C430.64 99.5218 412.676 84.7392 411.407 84.7392Z" fill="white"/>
<path d="M580.065 68.4783C574.147 67 562.518 69.6579 556.393 75.8696C550.268 82.0815 546.037 92.1304 546.037 99.5218C546.037 106.913 553.434 137.957 553.434 137.957L554.914 142.391C554.914 142.391 556.393 145.348 559.352 149.783C559.352 149.783 563.791 155.696 569.708 157.174C575.626 158.652 583.023 152.739 583.023 152.739C591.9 145.348 605.215 132.043 608.174 130.565C611.133 129.087 618.53 129.087 622.969 130.565C627.407 132.043 627.407 133.522 630.366 135C633.325 136.478 637.13 130.945 640.722 123.174C642.909 118.443 638.988 117.919 636.284 117.261C625.839 114.719 621.98 115.538 612.612 120.217C600.777 126.13 588.015 147.891 580.065 142.391C575.83 139.463 569.484 128.337 568.229 112.826C566.974 97.315 567.892 94.4895 568.229 93.6087C572.037 83.6266 587.808 86.1006 584.503 103.957C581.988 117.55 580.73 120.727 580.272 121.469C584.089 117.332 586.684 115.167 591.9 106.913C594.717 102.456 595.942 96.9732 596.339 92.1304C596.339 92.1304 596.338 83.2609 593.38 77.3478C590.421 71.4348 585.982 69.9565 580.065 68.4783Z" fill="white"/>
<path d="M457.27 96.5652C455.791 98.0435 449.873 103.957 448.393 112.826C446.914 121.696 446.914 129.087 448.393 140.913C449.873 152.739 452.832 167.522 457.27 176.391C461.708 185.261 464.667 188.217 466.147 189.696C467.626 191.174 472.065 194.13 475.023 192.652C477.982 191.174 485.054 180.461 488.339 173.435C491.623 166.409 491.984 165.826 495.736 155.696C499.488 145.565 500.813 139.962 501.654 130.565C502.29 123.457 502.216 116.22 501.952 114.246C501.952 114.246 510.53 114.304 512.01 117.261C513.489 120.217 510.53 146.826 512.01 152.739C513.489 158.652 520.191 170.266 532.722 161.609C545.253 152.952 544.519 154.649 554.914 142.391L553.434 137.957C553.434 137.957 546.037 146.826 540.119 146.826C534.202 146.826 532.722 145.348 531.243 140.913C529.763 136.478 532.722 106.913 531.243 105.435C529.763 103.957 517.928 111.348 512.01 112.826C506.092 114.304 501.654 112.826 501.654 112.826C501.648 106.325 501.725 102.501 500.174 99.5218C495.212 89.9831 477.124 99.1028 482.421 112.826C484.356 103.948 494.993 92.4397 494.256 109.87C493.52 127.299 494.256 124.652 492.777 136.478C491.297 148.304 485.38 170.478 485.38 170.478C485.38 170.478 483.9 174.913 482.421 176.391C480.941 177.87 476.503 167.522 475.023 155.696C473.544 143.87 475.023 127.609 475.023 127.609C475.023 127.609 475.023 118.739 472.065 112.826C469.106 106.913 458.749 95.087 457.27 96.5652Z" fill="white"/>
<path d="M56.5033 162.896C56.5033 162.896 91.8451 120.217 94.8031 118.739C91.8451 123.174 78.5291 139.435 78.5291 139.435L58.6914 165.356C58.8932 165.585 59.095 165.814 59.2962 166.043C67.993 175.954 72.6113 179.348 77.0497 191.174C81.488 203 81.488 220.739 78.5291 234.043C75.5702 247.348 66.6935 254.739 66.6935 254.739C52.4496 266.615 46.5398 270.799 32.6661 276.913C18.7924 283.028 6.03569 278.391 3.07744 272.478C0.119146 266.565 1.01369 254.875 1.59878 251.783C3.20917 236.092 15.5054 219.157 40.4172 185.276C29.4717 169.091 16.6136 153.398 14.9129 148.305C11.885 139.236 8.53928 126.763 31.1863 93.6087C62.1752 50.6839 100.721 27.087 108.118 30.0435C115.516 33 116.995 52.2174 114.036 62.5652C111.077 72.9131 102.2 78.8699 102.2 78.8699L96.2825 83.2609C77.1541 94.9397 68.2372 100.827 56.3373 109.87C28.1564 127.847 32.2447 133.446 32.6661 136.478C32.896 138.131 44.8464 149.896 56.5033 162.896ZM56.5033 162.896L56.3373 163.087M364.065 160.13C364.065 160.13 354.587 177.87 350.749 174.913C346.912 171.957 352.229 140.913 346.912 143.87C342.402 142.391 322.64 176.391 313.763 173.435C304.886 170.478 301.928 164.565 298.969 160.13C296.01 155.696 293.051 149.783 300.448 127.609C307.845 105.435 337.174 80.095 344.832 78.8261C352.489 77.5572 353.708 80.3044 355.188 83.2609C356.667 86.2174 358.147 98.0435 353.708 108.391C344.832 124.652 327.078 140.913 324.119 146.826C321.16 152.739 321.16 157.174 324.119 157.174C327.078 157.174 355.188 130.565 355.188 130.565C355.188 130.565 352.229 161.609 355.188 163.087C358.147 164.565 364.065 160.13 364.065 160.13ZM364.065 160.13C364.065 160.13 364.065 143.87 365.544 118.739C367.023 93.6087 374.421 52.2174 374.421 52.2174C374.421 52.2174 353.708 52.2174 349.27 50.7391C344.832 49.2609 341.873 47.7826 340.393 44.8261C338.914 41.8696 347.217 32.2916 356.093 29.3351C361.106 28.5652 377.542 28.9052 377.542 28.9052M364.065 160.13L364.065 176.391M364.065 160.13C364.065 160.13 364.065 164.565 364.065 176.391M212.746 231.619L214.64 231.087C214.64 231.087 230.914 225.174 287.133 220.739C343.352 216.304 398.092 216.304 406.969 216.304C415.845 216.304 433.599 217.783 433.599 217.783C465.62 220.802 494.212 224.841 553.434 231.087C553.434 231.087 467.626 223.696 436.558 222.217C405.489 220.739 391.713 221.732 372.941 222.217C346.261 222.908 334.446 224.306 319.681 225.174C294.53 226.652 266.421 232.565 244.229 237C222.037 241.435 211.526 246.248 211.526 246.248C211.526 246.248 210.047 262.13 208.722 271C207.397 279.87 204.284 302.043 201.325 310.913C198.366 319.783 193.928 330.13 190.969 333.087C188.01 336.044 183.571 337.522 177.654 337.522C170.256 334.565 166.928 330.13 161.38 322.739C152.503 310.913 149.544 302.044 146.585 294.652C143.626 287.261 140.667 273.957 140.667 271C140.667 268.043 140.667 260.959 143.626 256.217C146.585 251.475 158.421 247.348 167.297 244.391C176.174 241.435 193.928 236.908 193.928 236.908C195.69 205.441 195.801 187.321 193.928 154.217C193.928 154.217 179.133 167.522 167.297 180.826C155.462 194.13 149.544 192.652 145.106 192.652C140.667 192.652 137.708 191.174 133.27 182.304C128.832 173.435 128.832 166.043 128.832 158.652C128.832 151.261 128.832 149.783 133.27 137.957C137.708 126.13 142.147 118.739 152.503 105.435C162.859 92.1305 168.777 84.7392 179.133 81.7826C189.489 78.8261 192.448 92.1305 192.448 92.1305C192.448 92.1305 196.886 106.913 193.928 112.826C190.969 118.739 183.571 123.174 177.654 130.565C171.736 137.957 167.297 143.87 164.339 149.783C161.38 155.696 159.9 169 161.38 171.957C162.859 174.913 167.297 173.435 170.256 171.957C173.215 170.478 179.133 164.565 179.133 164.565L189.489 154.217C189.489 154.217 195.407 146.826 198.366 142.391C201.325 137.957 202.804 135 205.763 136.478C208.722 137.957 208.877 145.348 210.202 152.739C211.526 160.13 212.746 191.174 212.746 204.478M212.746 231.619V204.478M212.746 231.619C212.746 231.619 212.746 217.783 212.746 204.478M229.434 123.174C229.434 123.174 229.434 115.783 224.996 114.304C220.558 112.826 211.681 123.174 207.243 126.13C213.16 114.304 217.599 106.913 230.914 96.5652C244.229 86.2174 244.229 87.6957 248.667 86.2174C253.106 84.7391 253.106 87.6957 253.106 87.6957C253.106 87.6957 254.585 102.478 253.106 115.783C251.626 129.087 248.667 143.87 248.667 143.87C248.667 143.87 256.065 130.565 261.982 123.174C267.9 115.783 275.297 106.913 281.215 102.478C287.133 98.0435 293.051 95.087 294.53 98.0435C296.01 101 288.612 137.957 287.133 154.217C285.654 170.478 285.654 174.913 288.612 176.391C291.571 177.87 303.407 167.522 303.407 167.522C303.407 167.522 301.928 171.957 297.489 177.87C293.051 183.783 293.051 183.783 287.133 189.696C281.215 195.609 276.777 195.609 273.818 195.609C270.859 195.609 267.9 192.652 266.421 189.696C264.941 186.739 263.391 182.304 263.462 176.391C263.532 170.478 263.462 164.565 264.941 155.696C266.421 146.826 267.9 136.478 267.9 136.478L270.859 118.739C270.859 118.739 257.544 133.522 254.585 137.957C251.626 142.391 251.626 142.391 245.708 155.696C239.791 169 232.393 191.174 230.914 194.13C229.434 197.087 229.434 191.174 229.434 188.217M229.434 123.174V188.217M229.434 123.174C229.434 123.174 229.434 185.261 229.434 188.217M377.542 28.9052C377.542 28.9052 377.38 28.5652 378.859 19.6957C380.339 10.8261 381.818 7.86958 381.818 7.86958C381.818 7.86958 383.297 3.43483 386.256 1.95654C389.215 0.478263 390.695 0.478284 393.654 1.95654C396.612 3.4348 401.051 10.8261 402.53 15.2609C404.01 19.6957 403.311 21.9577 402.072 29.3351C402.072 29.3351 424.722 30.466 448.393 27.087C469.106 24.1304 488.339 13.7826 494.256 12.3044C489.818 18.2174 479.462 27.087 466.147 34.4783C452.832 41.8696 438.037 47.7826 418.804 50.7391C411.407 52.2174 398.548 52.2174 398.548 52.2174C398.548 52.2174 393.654 87.6957 390.695 109.87C387.736 132.043 387.736 166.043 389.215 180.826C390.695 188.217 392.174 188.217 393.654 188.217C395.133 188.217 411.407 171.957 411.407 171.957M377.542 28.9052L377.38 30.0435M364.065 176.391C364.065 188.217 365.544 194.13 368.503 200.043C371.462 205.957 377.38 208.913 380.339 208.913C383.297 208.913 393.654 197.087 393.654 197.087L412.886 174.913M412.886 174.913L411.407 171.957M412.886 174.913C412.886 174.913 414.366 179.348 418.804 180.826C423.243 182.304 430.64 183.076 436.558 177.87C442.476 172.663 457.27 148.304 457.27 148.304C457.27 148.304 443.955 163.087 439.517 164.565C435.078 166.043 430.64 163.087 429.16 148.304C427.681 133.522 433.599 111.348 432.119 105.435C430.64 99.5218 412.676 84.7392 411.407 84.7392C410.138 84.7392 404.01 102.478 404.01 136.478C405.489 158.652 411.407 171.957 411.407 171.957M553.434 137.957C553.434 137.957 546.037 106.913 546.037 99.5218C546.037 92.1304 550.268 82.0815 556.393 75.8696C562.518 69.6579 574.147 67 580.065 68.4783C585.982 69.9565 590.421 71.4348 593.38 77.3478C596.338 83.2609 596.339 92.1304 596.339 92.1304C595.942 96.9732 594.717 102.456 591.9 106.913C586.684 115.167 584.089 117.332 580.272 121.469M553.434 137.957L554.914 142.391M553.434 137.957C553.434 137.957 546.037 146.826 540.119 146.826C534.202 146.826 532.722 145.348 531.243 140.913C529.763 136.478 532.722 106.913 531.243 105.435C529.763 103.957 517.928 111.348 512.01 112.826C506.092 114.304 501.654 112.826 501.654 112.826C501.648 106.325 501.725 102.501 500.174 99.5218C495.212 89.9831 477.124 99.1028 482.421 112.826C484.356 103.948 494.993 92.4397 494.256 109.87C493.52 127.299 494.256 124.652 492.777 136.478C491.297 148.304 485.38 170.478 485.38 170.478C485.38 170.478 483.9 174.913 482.421 176.391C480.941 177.87 476.503 167.522 475.023 155.696C473.544 143.87 475.023 127.609 475.023 127.609C475.023 127.609 475.023 118.739 472.065 112.826C469.106 106.913 458.749 95.087 457.27 96.5652C455.791 98.0435 449.873 103.957 448.393 112.826C446.914 121.696 446.914 129.087 448.393 140.913C449.873 152.739 452.832 167.522 457.27 176.391C461.708 185.261 464.667 188.217 466.147 189.696C467.626 191.174 472.065 194.13 475.023 192.652C477.982 191.174 485.054 180.461 488.339 173.435C491.623 166.409 491.984 165.826 495.736 155.696C499.488 145.565 500.813 139.962 501.654 130.565C502.29 123.457 502.216 116.22 501.952 114.246C501.952 114.246 510.53 114.304 512.01 117.261C513.489 120.217 510.53 146.826 512.01 152.739C513.489 158.652 520.191 170.266 532.722 161.609C545.253 152.952 544.519 154.649 554.914 142.391M554.914 142.391C554.914 142.391 556.393 145.348 559.352 149.783C559.352 149.783 563.791 155.696 569.708 157.174C575.626 158.652 583.023 152.739 583.023 152.739C591.9 145.348 605.215 132.043 608.174 130.565C611.133 129.087 618.53 129.087 622.969 130.565C627.407 132.043 627.407 133.522 630.366 135C633.325 136.478 637.13 130.945 640.722 123.174C642.909 118.443 638.988 117.919 636.284 117.261C625.839 114.719 621.98 115.538 612.612 120.217C600.777 126.13 588.015 147.891 580.065 142.391C575.83 139.463 569.484 128.337 568.229 112.826C566.974 97.315 567.892 94.4895 568.229 93.6087C572.037 83.6266 587.808 86.1006 584.503 103.957C581.988 117.55 580.73 120.727 580.272 121.469M580.272 121.469C580.204 121.544 580.136 121.62 580.065 121.696C580.065 121.696 580.13 121.702 580.272 121.469ZM50.4204 256.217C59.2971 245.87 56.3373 219.261 56.3373 219.261C56.3373 211.306 49.7579 199.332 41.831 187.386L40.0634 189.696C40.0634 189.696 29.7081 204.478 20.8315 220.739C11.9548 237 4.34583 263.332 10.4753 269.522C16.6048 275.712 42.1056 266.989 50.4204 256.217ZM122.914 64.0438C122.914 64.0438 121.159 73.3882 122.913 75.8696C124.668 78.351 122.914 77.3481 128.831 81.7829C134.749 86.2177 142.146 83.2612 142.146 83.2612C145.939 80.8933 148.622 79.0845 153.982 69.9568C159.066 60.76 163.542 48.6773 158.421 46.3044C153.299 43.9315 146.585 46.3044 136.229 52.2174C125.873 58.1305 124.393 61.0876 122.914 64.0438ZM114.037 92.1304C111.078 92.1304 108.684 93.368 106.64 96.5652C104.595 99.7624 103.681 102.478 100.721 115.783C97.7623 129.087 99.2426 140.913 99.2426 140.913C99.2426 140.913 100.722 151.261 103.681 161.609C106.64 171.957 108.119 176.391 111.078 176.391C114.036 176.391 115.517 166.043 115.517 166.043C115.517 166.043 115.515 163.087 118.475 151.261C121.435 139.435 128.831 132.043 131.79 123.174C134.749 114.304 133.269 105.435 131.79 101C130.311 96.5652 128.832 95.087 125.873 93.6087C122.914 92.1304 116.996 92.1304 114.037 92.1304ZM177.654 331.609C180.612 331.609 182.092 327.174 186.53 312.391C190.969 297.609 193.041 251.475 193.041 251.475C193.041 251.475 174.695 256.217 165.818 259.174C156.941 262.13 149.544 265.087 149.544 272.478C149.544 279.87 152.503 293.174 156.941 303.522C161.38 313.87 171.736 328.652 171.736 328.652C171.736 328.652 174.695 331.609 177.654 331.609Z" stroke="white"/>
</svg>
