<svg width="250" height="200" viewBox="0 0 555 292" fill="none" xmlns="http://www.w3.org/2000/svg">
<path fill-rule="evenodd" clip-rule="evenodd" d="M93.4998 25.5C57.4595 36.0333 12.769 89.219 11.4997 108.5C10.2305 127.781 12.9999 132.5 12.9999 132.5C18.304 143.312 24.789 151.627 30.7038 159.211C31.5057 160.24 32.2972 161.254 33.0738 162.26C25.9955 172.147 20.7072 179.907 17.9999 184C10.262 195.7 -1.99997 221.5 1.99986 233.5C5.00005 239 9.2741 240.811 14.9999 241C34.5 241.644 67 219.5 69 195C71.0989 171.835 68.3051 160.9 49.9136 141.705C61.1575 125.81 71.5732 112.244 85.9998 95C72.7146 110.064 59.8963 126.2 48.9387 140.695C44.2944 135.916 38.7008 130.618 32 124.5C23.0233 114.228 30.3447 108.943 43.7495 99.265C44.3222 98.8516 44.9059 98.4302 45.5 98C48.5803 95.9761 51.5059 94.0597 54.2816 92.2415C84.6555 72.3455 97.0837 64.2045 98 55.5C99.3158 43 99.4295 24.4943 93.4998 25.5ZM34.4838 164.1C41.362 173.156 46.7928 181.688 47.4999 193C50.4999 219 30.4999 236.5 17.9999 237.5C1.29098 238.607 0.999828 217 29.4999 171.5C31.2134 168.948 32.8715 166.485 34.4838 164.1Z" fill="white"/>
<path d="M100 77.5C79.5 77.5 80.5 155 98.5 153.5C99.1907 153.38 99.4286 153.178 99.5 152.5C100.5 130.5 103 127 114 107C119.5 89.5 107.5 77.5 100 77.5Z" fill="white"/>
<path d="M103.5 60C103.385 64.9987 105.5 73 117.5 73C129.076 72.5673 132.654 61.376 138 47.5C138 47.5 140 41 138.5 40C137 39 135.5 39 134 39C126.5 39 103.714 50.7424 103.5 60Z" fill="white"/>
<path fill-rule="evenodd" clip-rule="evenodd" d="M156.5 70C128.348 87.0602 112.508 110.958 110.5 135.5C110.476 152.625 116.186 162.654 121.5 164.5C127.851 167.532 145.113 156.249 167 132.5C167.616 153.59 167.658 179.454 166.763 203.979C149.863 208.859 135.174 215.213 125.5 223.5C116.151 234.994 136.709 286.186 153 291.5C161 291.5 165.615 286.408 169 279.5C177.578 260.721 182.071 236.138 183.526 209.987C218.431 201.073 270.139 193.281 339.5 192.5C354.157 191.301 428.5 193.5 481 200C460.12 195.722 361.5 184 276 188.5C251.483 189.79 215.705 192.671 183.943 199.651C184.639 172.476 182.281 144.235 178 119.5C177 118 175.866 117.345 174.5 119.5C164.481 133.262 148.558 149.726 140 149.5C137 144.5 145.049 120.224 164.5 102.5C165.728 101.023 166.459 100.371 167 96C167.612 82.185 164.415 68.3348 156.5 70ZM128.5 236.5C128.5 250.503 145 288 153 287C160.499 281.857 164.518 250.91 166.297 214.877C147.714 220.75 136.024 226.647 131 231C129 232.5 128.5 235 128.5 236.5Z" fill="white"/>
<path d="M216 74.5C206.405 75.0102 190.531 83.9446 174.5 112C185.165 103.134 189 98.5 194 100.5C200.457 106.49 193 149.5 198.5 169.5C200 170.5 204 156.5 204 156.5C211.168 130.71 232.5 102.5 233.5 103.5C222 149.5 229 166 231.5 168.5C238 171.5 242 167 242 167C253.81 157.407 262.191 147.238 262 145L254 151.5C254 151.5 247 155.5 247 151.5C246 127 258 89.5 254 85.5C252.5 84.5 250 84.5 247 85.5C244 86.5 232.828 98.185 214.5 123C216.88 106.703 224.5 74.5 216 74.5Z" fill="white"/>
<path fill-rule="evenodd" clip-rule="evenodd" d="M292.5 69.5C260.962 93.3618 257.906 107.915 256.5 127C256.77 140.423 264.152 149.457 270 149.5C281.127 147.742 286.344 140.871 293.426 131.543C294.997 129.473 296.66 127.283 298.5 125C299.29 142.718 299.823 151.495 302 151.5C304.341 153.351 306.402 150.19 309.929 144.78C311.092 142.997 312.414 140.969 313.958 138.795C314.144 161.71 316.462 179.084 321.98 182C324 183.067 326.5 182 331.5 178C339.281 170.223 345.104 163.729 353.345 152.621C356.667 158.152 360.811 159.312 364 159.5C370.796 159.9 381.429 147.194 388.74 135.183C391.554 149.276 396.863 161.811 404 166.5C415 169.5 424.5 156.5 431.5 103C431.572 101.825 431.635 100.725 431.685 99.6906C435.044 99.6392 437.935 99.3004 440.084 99.0486L440.5 99C439.285 132.134 442.631 139.564 450 145C455.296 145.883 462.931 140.921 477.373 122.549C480.325 128.074 483.967 132.236 487.5 136C494.614 142.455 499.943 135.247 509 126C512.191 123.358 518.5 115.5 526.5 113.5C536.215 111.327 538.141 114.16 543.5 117C547.289 117.668 552.554 113 553 111C554.769 103.064 552.844 102.612 550 101C540.212 98.6991 538.631 99.9485 534 101C525.63 104.173 513 122.5 506.5 123.5C503 123.5 499 121 495.5 112.5C495.147 111.373 494.8 110.276 494.46 109.206C499.771 105.604 508.566 98.5008 511.5 93C513.9 88.5 515 83.5 515 80C515 76.5 514.5 67 507.5 63.5C501.5 60.5 495.116 59.8609 491.5 60C478.5 60.5 473.74 70.9786 471.5 84.5C470.06 101.778 472.632 113.089 476.774 121.389C468.906 129.064 466.821 129.318 464.5 129.5C460.935 129.144 460.674 121.417 460.275 109.582C460.114 104.816 459.931 99.3848 459.5 93.5C459.39 92 456 91.5 453 92C451.601 92.2332 449.958 92.8762 447.956 93.66C445.667 94.5565 442.906 95.6373 439.5 96.5C438.256 96.9146 435.122 97.2647 431.772 97.4524C431.916 92.1764 431.492 88.7523 429.5 85.5C425.5 81.5 420.126 83.5615 419 84.5C416 87 414.5 91.5 416 95C417 97 418 98 420 98.5C421.778 98.9184 423.521 99.2056 425.204 99.3936C425.237 123.655 418.647 152.265 415 155C411 158 409.308 129.876 409 105C407.233 94.479 397 81.5 394 83.5C386.048 91.34 384.779 113.602 388.394 133.37C382.995 140.317 380.307 142.435 378 142.5C370.939 143.729 370.083 110.146 372 94.5C372.37 91.4822 357.5 70 354 73.5C343 97.5 343.5 128.5 351 147.5C351.463 148.822 351.96 150 352.485 151.05C346.015 158.109 339.664 164.118 338 163.5C335.062 162.409 334.454 137.339 336 108.5C339.269 78.4297 342.154 59.4522 344.37 46.5003C380.987 43.7643 405.27 33.1485 429.5 11.5C395.321 25.3851 371.03 28.8762 347.599 28.4718C348.496 23.2968 348.994 19.5252 349 15.5C347 8.5 339 0.500013 333 1.50002C330.069 3.30379 326.985 12.9874 324.173 27.0146C322.461 26.8512 320.738 26.6789 319 26.5C308 25.3676 305.5 26.9286 300.5 30.5C295.5 34.0714 293.243 38.0619 293.5 41C294.248 44.7424 298.644 45.3338 304.158 46.0758C306.011 46.3251 307.99 46.5914 310 47C313.683 47.1219 317.258 47.1961 320.732 47.2209C316.767 74.344 313.942 108.567 313.946 135.796C311.43 137.873 308.838 139.998 307 141.5V112C305.545 112.004 301.795 116.827 297.608 122.213C293.595 127.375 289.181 133.053 286 135.5C281.813 137.297 280.352 137.119 279.5 134.5C279.5 118.939 292.753 106.258 299.795 99.5211C302.029 97.3828 303.639 95.8432 304 95C305.5 91.5 305.836 75.4274 299.5 68C299.405 67.9887 299.312 67.9771 299.221 67.9654C299.164 67.9581 299.109 67.9508 299.054 67.9435L298.922 67.9258C297.241 67.7008 296.139 67.5532 292.5 69.5ZM419 89C421 86.5 424.569 87.0872 425 92.5C425.101 94.1596 425.163 95.8566 425.189 97.5799C423.075 97.5232 421.457 97.3429 421 97C419 95.5 417.702 92.7415 419 89ZM503 83.5C502 78.5 491.5 73 489 78.5C487.228 86.4763 489.987 95.1481 493.93 107.539L494.132 108.172C496.917 105.303 499.961 101.419 502 97C503.429 93.9034 504 88.5 503 83.5Z" fill="white"/>
<path d="M298.922 67.9258C297.241 67.7008 296.139 67.5532 292.5 69.5C260.962 93.3618 257.906 107.915 256.5 127C256.77 140.423 264.152 149.457 270 149.5C281.127 147.742 286.344 140.871 293.426 131.543C294.997 129.473 296.66 127.283 298.5 125C299.29 142.718 299.823 151.495 302 151.5C304.341 153.351 306.402 150.19 309.929 144.78C311.092 142.997 312.414 140.969 313.958 138.795C314.144 161.71 316.462 179.084 321.98 182C324 183.067 326.5 182 331.5 178C339.281 170.223 345.104 163.729 353.345 152.621C356.667 158.152 360.811 159.312 364 159.5C370.796 159.9 381.429 147.194 388.74 135.183C391.554 149.276 396.863 161.811 404 166.5C415 169.5 424.5 156.5 431.5 103C431.572 101.825 431.635 100.725 431.685 99.6906C435.044 99.6392 437.935 99.3004 440.084 99.0486M298.922 67.9258L299.054 67.9435M298.922 67.9258C298.966 67.9316 299.01 67.9375 299.054 67.9435M440.5 99C439.285 132.134 442.631 139.564 450 145C455.296 145.883 462.931 140.921 477.373 122.549C480.325 128.074 483.967 132.236 487.5 136C494.614 142.455 499.943 135.247 509 126C512.191 123.358 518.5 115.5 526.5 113.5C536.215 111.327 538.141 114.16 543.5 117C547.289 117.668 552.554 113 553 111C554.769 103.064 552.844 102.612 550 101C540.212 98.6991 538.631 99.9485 534 101C525.63 104.173 513 122.5 506.5 123.5C503 123.5 499 121 495.5 112.5C495.147 111.373 494.8 110.276 494.46 109.206C499.771 105.604 508.566 98.5008 511.5 93C513.9 88.5 515 83.5 515 80C515 76.5 514.5 67 507.5 63.5C501.5 60.5 495.116 59.8609 491.5 60C478.5 60.5 473.74 70.9786 471.5 84.5C470.06 101.778 472.632 113.089 476.774 121.389C468.906 129.064 466.821 129.318 464.5 129.5C460.935 129.144 460.674 121.417 460.275 109.582C460.114 104.816 459.931 99.3848 459.5 93.5C459.39 92 456 91.5 453 92C451.601 92.2332 449.958 92.8762 447.956 93.66C445.667 94.5565 442.906 95.6373 439.5 96.5C438.256 96.9146 435.122 97.2647 431.772 97.4524C431.916 92.1764 431.492 88.7523 429.5 85.5C425.5 81.5 420.126 83.5615 419 84.5C416 87 414.5 91.5 416 95C417 97 418 98 420 98.5C421.778 98.9184 423.521 99.2056 425.204 99.3936C425.237 123.655 418.647 152.265 415 155C411 158 409.308 129.876 409 105C407.233 94.479 397 81.5 394 83.5C386.048 91.34 384.779 113.602 388.394 133.37C382.995 140.317 380.307 142.435 378 142.5C370.939 143.729 370.083 110.146 372 94.5C372.37 91.4822 357.5 70 354 73.5C343 97.5 343.5 128.5 351 147.5C351.463 148.822 351.96 150 352.485 151.05C346.015 158.109 339.664 164.118 338 163.5C335.062 162.409 334.454 137.339 336 108.5C339.269 78.4297 342.154 59.4522 344.37 46.5003C380.987 43.7643 405.27 33.1485 429.5 11.5C395.321 25.3851 371.03 28.8762 347.599 28.4718C348.496 23.2968 348.994 19.5252 349 15.5C347 8.5 339 0.500013 333 1.50002C330.069 3.30379 326.985 12.9874 324.173 27.0146C322.461 26.8512 320.738 26.6789 319 26.5C308 25.3676 305.5 26.9286 300.5 30.5C295.5 34.0714 293.243 38.0619 293.5 41C294.248 44.7424 298.644 45.3338 304.158 46.0758C306.011 46.3251 307.99 46.5914 310 47C313.683 47.1219 317.258 47.1961 320.732 47.2209C316.767 74.344 313.942 108.567 313.946 135.796C311.43 137.873 308.838 139.998 307 141.5V112C305.545 112.004 301.795 116.827 297.608 122.213C293.595 127.375 289.181 133.053 286 135.5C281.813 137.297 280.352 137.119 279.5 134.5C279.5 118.939 292.753 106.258 299.795 99.5211C302.029 97.3828 303.639 95.8432 304 95C305.5 91.5 305.836 75.4274 299.5 68C299.405 67.9887 299.312 67.9771 299.221 67.9654C299.164 67.9581 299.109 67.9508 299.054 67.9435M440.5 99C440.365 99.0158 440.226 99.032 440.084 99.0486M440.5 99L440.084 99.0486M494.132 108.172C496.917 105.303 499.961 101.419 502 97C503.429 93.9034 504 88.5 503 83.5C502 78.5 491.5 73 489 78.5C487.228 86.4763 489.987 95.1481 493.93 107.539M494.132 108.172L493.93 107.539M494.132 108.172C494.064 107.96 493.997 107.749 493.93 107.539M93.4998 25.5C57.4595 36.0333 12.769 89.219 11.4997 108.5C10.2305 127.781 12.9999 132.5 12.9999 132.5C18.304 143.312 24.789 151.627 30.7038 159.211C31.5057 160.24 32.2972 161.254 33.0738 162.26C25.9955 172.147 20.7072 179.907 17.9999 184C10.262 195.7 -1.99997 221.5 1.99986 233.5C5.00005 239 9.2741 240.811 14.9999 241C34.5 241.644 67 219.5 69 195C71.0989 171.835 68.3051 160.9 49.9136 141.705C61.1575 125.81 71.5732 112.244 85.9998 95C72.7146 110.064 59.8963 126.2 48.9387 140.695C44.2944 135.916 38.7008 130.618 32 124.5C23.0233 114.228 30.3447 108.943 43.7495 99.265C44.3222 98.8516 44.9059 98.4302 45.5 98C48.5803 95.9761 51.5059 94.0597 54.2816 92.2415C84.6555 72.3455 97.0837 64.2045 98 55.5C99.3158 43 99.4295 24.4943 93.4998 25.5ZM47.4999 193C50.4999 219 30.4999 236.5 17.9999 237.5C1.29098 238.607 0.999828 217 29.4999 171.5C31.2134 168.948 32.8715 166.485 34.4838 164.1C41.362 173.156 46.7928 181.688 47.4999 193ZM100 77.5C79.5 77.5 80.5 155 98.5 153.5C99.1907 153.38 99.4286 153.178 99.5 152.5C100.5 130.5 103 127 114 107C119.5 89.5 107.5 77.5 100 77.5ZM103.5 60C103.385 64.9987 105.5 73 117.5 73C129.076 72.5673 132.654 61.376 138 47.5C138 47.5 140 41 138.5 40C137 39 135.5 39 134 39C126.5 39 103.714 50.7424 103.5 60ZM156.5 70C128.348 87.0602 112.508 110.958 110.5 135.5C110.476 152.625 116.186 162.654 121.5 164.5C127.851 167.532 145.113 156.249 167 132.5C167.616 153.59 167.658 179.454 166.763 203.979C149.863 208.859 135.174 215.213 125.5 223.5C116.151 234.994 136.709 286.186 153 291.5C161 291.5 165.615 286.408 169 279.5C177.578 260.721 182.071 236.138 183.526 209.987C218.431 201.073 270.139 193.281 339.5 192.5C354.157 191.301 428.5 193.5 481 200C460.12 195.722 361.5 184 276 188.5C251.483 189.79 215.705 192.671 183.943 199.651C184.639 172.476 182.281 144.235 178 119.5C177 118 175.866 117.345 174.5 119.5C164.481 133.262 148.558 149.726 140 149.5C137 144.5 145.049 120.224 164.5 102.5C165.728 101.023 166.459 100.371 167 96C167.612 82.185 164.415 68.3348 156.5 70ZM153 287C145 288 128.5 250.503 128.5 236.5C128.5 235 129 232.5 131 231C136.024 226.647 147.714 220.75 166.297 214.877C164.518 250.91 160.499 281.857 153 287ZM216 74.5C206.405 75.0102 190.531 83.9446 174.5 112C185.165 103.134 189 98.5 194 100.5C200.457 106.49 193 149.5 198.5 169.5C200 170.5 204 156.5 204 156.5C211.168 130.71 232.5 102.5 233.5 103.5C222 149.5 229 166 231.5 168.5C238 171.5 242 167 242 167C253.81 157.407 262.191 147.238 262 145L254 151.5C254 151.5 247 155.5 247 151.5C246 127 258 89.5 254 85.5C252.5 84.5 250 84.5 247 85.5C244 86.5 232.828 98.185 214.5 123C216.88 106.703 224.5 74.5 216 74.5ZM425 92.5C424.569 87.0872 421 86.5 419 89C417.702 92.7415 419 95.5 421 97C421.457 97.3429 423.075 97.5232 425.189 97.5799C425.163 95.8566 425.101 94.1596 425 92.5Z" stroke="white"/>
</svg>
